<svg width="199" height="204" viewBox="0 0 199 204" fill="none" xmlns="http://www.w3.org/2000/svg">
<path fill-rule="evenodd" clip-rule="evenodd" d="M99 42C127.719 42 151 36.4036 151 29.5C151 22.5964 127.719 17 99 17C70.2812 17 47 22.5964 47 29.5C47 36.4036 70.2812 42 99 42ZM99 39C119.435 39 136 34.5228 136 29C136 23.4772 119.435 19 99 19C78.5655 19 62 23.4772 62 29C62 34.5228 78.5655 39 99 39Z" fill="#1B155F"/>
<circle cx="99" cy="99" r="54" stroke="#1B155F" stroke-width="2"/>
<circle cx="99" cy="99" r="44.5" stroke="#1B155F"/>
<circle cx="99" cy="99" r="40" stroke="#1B155F" stroke-width="5"/>
<path d="M125.414 124.5L124 125.914L119.455 119.955L125.414 124.5Z" fill="#1B155F"/>
<path d="M74 125.914L72.5858 124.5L78.5453 119.955L74 125.914Z" fill="#1B155F"/>
<path d="M124 73.0858L125.414 74.5L119.455 79.0453L124 73.0858Z" fill="#1B155F"/>
<path d="M72.5858 74.5001L74 73.0858L78.5453 79.0454L72.5858 74.5001Z" fill="#1B155F"/>
<path fill-rule="evenodd" clip-rule="evenodd" d="M99 0L98 13V86.12L87.3929 98H13L0 99L13 100H87.3929L98 111.88V186L99 199L100 186V111.88L110.607 100H186L199 99L186 98H110.607L100 86.12V13L99 0ZM99 104C101.761 104 104 101.761 104 99C104 96.2386 101.761 94 99 94C96.2386 94 94 96.2386 94 99C94 101.761 96.2386 104 99 104Z" fill="#1B155F"/>
</svg>
